<?xml version="1.0" encoding="UTF-8" standalone="no"?>
<!DOCTYPE svg PUBLIC "-//W3C//DTD SVG 1.1//EN" "http://www.w3.org/Graphics/SVG/1.1/DTD/svg11.dtd">
<svg width="100%" height="100%" viewBox="0 0 1291 385" version="1.1" xmlns="http://www.w3.org/2000/svg" xmlns:xlink="http://www.w3.org/1999/xlink" xml:space="preserve" xmlns:serif="http://www.serif.com/" style="fill-rule:evenodd;clip-rule:evenodd;stroke-linejoin:round;stroke-miterlimit:1.41421;">
    <g transform="matrix(0.095238,-1.4585e-16,-1.4585e-16,-0.095238,-42.1377,402.862)">
        <path d="M1985,4224C1888,4214 1672,4162 1554,4119C1272,4017 1056,3857 894,3629C643,3275 466,2679 445,2116C411,1198 731,371 1166,255C1197,247 1254,240 1292,240C1348,241 1373,248 1433,278C1515,319 1541,340 1599,411C1724,565 1858,1059 1874,1428C1880,1546 1890,1990 1890,2096C1890,2163 1902,2180 1937,2167C1951,2161 1953,2105 1952,1734C1951,984 1988,779 2177,506C2275,363 2415,253 2557,209C2580,201 2635,195 2679,196C2748,196 2770,201 2827,229C2891,260 2985,348 3038,425L3057,453L3108,402C3224,286 3397,242 3731,241C3945,241 4155,285 4389,378C4655,483 4937,689 5122,912C5153,949 5178,972 5181,964C5183,956 5193,919 5202,881C5224,794 5264,745 5340,709C5559,605 6033,697 6416,916C6519,975 6638,1054 6669,1084C6677,1092 6697,1108 6714,1120L6745,1142L6808,1116C6915,1072 7143,1062 7334,1093C7495,1118 7682,1176 7888,1264C7997,1311 8057,1343 8204,1433C8279,1479 8289,1482 8314,1470C8565,1355 8885,1380 9126,1534C9216,1592 9349,1730 9423,1843L9484,1936L9517,1895C9535,1872 9569,1830 9592,1801C9617,1771 9666,1729 9708,1704C9896,1589 10096,1559 10280,1616C10317,1628 10351,1638 10356,1638C10361,1638 10361,1615 10357,1587C10346,1502 10385,1415 10458,1363C10541,1303 10776,1222 10973,1186C11066,1169 11277,1171 11366,1190C11444,1207 11567,1251 11606,1275C11665,1312 11668,1310 11726,1194C11822,1002 11996,829 12227,699C12451,573 12773,533 12987,605C13134,654 13302,780 13391,906C13494,1054 13535,1199 13535,1412C13536,1556 13528,1603 13482,1747C13464,1804 13451,1852 13454,1855C13457,1858 13482,1852 13510,1842C13659,1791 13848,1844 13917,1957C13982,2063 14002,2169 13979,2280C13922,2553 13663,2821 13346,2933C13236,2972 13163,2981 12999,2978C12738,2972 12501,2888 12351,2747C12308,2707 12284,2691 12281,2700C12279,2708 12269,2752 12259,2798C12219,2981 12158,3121 12050,3273C11899,3489 11749,3607 11584,3642C11428,3675 11293,3574 11157,3321C11140,3291 11124,3268 11120,3271C11115,3273 11109,3303 11106,3336C11102,3369 11084,3446 11066,3507C11001,3726 10910,3865 10773,3959C10599,4080 10248,4066 9996,3929C9876,3864 9788,3790 9693,3677C9668,3646 9644,3624 9641,3627C9638,3630 9615,3678 9591,3732C9447,4050 9233,4213 8941,4228C8856,4233 8818,4230 8745,4212C8570,4169 8476,4126 8351,4034C8158,3891 7986,3633 7890,3343C7831,3163 7820,3085 7818,2838L7816,2616L7750,2557C7714,2524 7682,2500 7679,2503C7676,2505 7679,2526 7685,2548C7739,2752 7793,3083 7799,3253C7811,3597 7740,3824 7569,3985C7487,4063 7386,4110 7290,4114C7105,4124 6865,3980 6755,3796C6735,3761 6716,3731 6714,3728C6711,3726 6693,3743 6673,3766C6630,3816 6509,3880 6427,3895C6270,3925 6070,3887 5902,3795C5621,3641 5409,3374 5299,3035C5285,2992 5237,2772 5225,2693C5222,2676 5212,2615 5203,2557C5180,2414 5178,2405 5166,2405C5160,2405 5110,2383 5054,2357C4998,2331 4951,2312 4949,2314C4947,2316 4957,2350 4972,2390C5043,2580 5063,2640 5097,2772C5148,2973 5170,3133 5163,3256C5148,3506 5062,3665 4896,3750C4833,3782 4817,3785 4741,3784C4552,3783 4418,3689 4313,3483L4276,3412L4242,3465C4164,3586 4081,3642 3966,3651C3732,3669 3503,3470 3387,3147C3377,3120 3368,3098 3366,3098C3365,3098 3333,3127 3295,3164C3184,3273 3047,3327 2957,3297C2913,3283 2836,3209 2802,3150C2779,3108 2759,3098 2745,3119C2742,3125 2720,3144 2697,3160L2656,3190L2722,3244C2921,3407 3040,3600 3038,3761C3036,3991 2788,4175 2420,4220C2333,4231 2070,4233 1985,4224Z"/>
    </g>
    <g>
        <g transform="matrix(0.095238,-1.4585e-16,-1.4585e-16,-0.095238,-42.1377,402.862)">
            <path d="M3116,3176C3246,3111 3371,2917 3415,2714C3435,2622 3438,2578 3437,2357C3436,1993 3406,1768 3308,1391C3250,1170 3200,1009 3145,866C3093,735 2976,504 2960,504C2955,504 2942,486 2930,464C2919,441 2884,400 2852,371C2770,295 2686,277 2574,310C2473,340 2411,384 2312,497C2131,704 2063,933 2036,1433C2023,1665 2031,2161 2047,2177C2052,2182 2097,2200 2148,2217C2496,2334 2653,2520 2588,2738C2567,2808 2494,2904 2422,2956C2390,2979 2363,3001 2363,3005C2363,3009 2397,3030 2439,3053C2480,3075 2525,3100 2537,3108C2569,3128 2608,3114 2663,3064C2728,3004 2732,2994 2714,2936C2681,2825 2639,2543 2608,2226C2584,1984 2581,1419 2603,1393C2620,1372 2660,1370 2676,1389C2683,1398 2687,1491 2686,1659C2686,1927 2696,2092 2731,2410C2780,2854 2834,3051 2933,3156C2972,3196 2984,3203 3020,3203C3044,3203 3085,3191 3116,3176Z" style="fill:white;"/>
        </g>
        <g transform="matrix(0.095238,-1.4585e-16,-1.4585e-16,-0.095238,-42.1377,402.862)">
            <path d="M2354,4126C2584,4103 2751,4039 2853,3935C2907,3879 2940,3810 2940,3750C2940,3708 2907,3614 2872,3553C2826,3475 2665,3321 2541,3238C2407,3147 2344,3115 2261,3093C2206,3079 2189,3079 2120,3091C1881,3136 1510,3137 1441,3092C1428,3083 1418,3067 1418,3056C1418,3020 1450,3012 1567,3022C1746,3037 1993,3021 2126,2986C2343,2928 2499,2786 2499,2646C2499,2585 2471,2525 2419,2475C2372,2429 2210,2344 2111,2312C2008,2279 1784,2240 1654,2231C1591,2228 1531,2220 1520,2214C1497,2202 1496,2160 1518,2137C1535,2121 1597,2121 1750,2137C1775,2139 1797,2138 1799,2134C1808,2117 1784,1498 1769,1360C1732,1023 1647,687 1562,537C1486,404 1365,328 1250,341C938,377 658,870 572,1533C548,1714 540,2125 556,2284C596,2683 711,3101 852,3367C1067,3773 1370,3996 1837,4095C2027,4135 2175,4144 2354,4126Z" style="fill:white;"/>
        </g>
        <g transform="matrix(0.095238,-1.4585e-16,-1.4585e-16,-0.095238,-42.1377,402.862)">
            <path d="M4044,3527C4164,3466 4247,3259 4274,2949C4298,2677 4245,2213 4157,1925C4107,1764 3994,1517 3838,1234C3791,1148 3780,1119 3780,1079C3780,1034 3782,1029 3805,1029C3838,1029 3850,1045 3928,1192C4006,1338 4076,1415 4249,1545C4577,1792 4900,1867 5095,1743C5324,1598 5271,1211 4980,902C4781,692 4514,523 4235,431C4015,359 3916,343 3701,343C3396,344 3270,373 3180,463C3111,531 3109,550 3154,637C3319,957 3491,1599 3527,2032C3562,2448 3542,2712 3459,2921C3440,2969 3441,2971 3463,3062C3498,3205 3557,3316 3648,3405C3786,3543 3928,3586 4044,3527Z" style="fill:white;"/>
        </g>
        <g transform="matrix(0.095238,-1.4585e-16,-1.4585e-16,-0.095238,-42.1377,402.862)">
            <path d="M13244,2856C13411,2815 13555,2732 13677,2607C13771,2511 13806,2460 13851,2354C13919,2190 13887,2030 13771,1959C13725,1930 13711,1927 13635,1927C13566,1927 13540,1932 13493,1954C13419,1988 13326,2065 13198,2196C13094,2303 13063,2319 13041,2278C13025,2248 13062,2189 13167,2079C13302,1937 13351,1854 13404,1675C13470,1447 13440,1156 13332,994C13236,849 13071,731 12904,687C12810,663 12606,670 12490,702C12300,754 12123,865 11961,1034C11882,1117 11857,1152 11819,1232C11717,1446 11708,1571 11782,1729C11819,1806 11887,1879 11956,1912C11983,1925 12043,1940 12092,1946L12179,1957L12277,1908C12330,1882 12399,1838 12429,1812C12502,1747 12601,1623 12658,1523C12708,1436 12731,1420 12768,1446C12799,1468 12791,1502 12736,1593C12683,1681 12634,1745 12536,1853C12413,1990 12343,2165 12330,2369C12320,2535 12355,2628 12456,2704C12585,2801 12728,2850 12968,2880C13023,2887 13165,2874 13244,2856Z" style="fill:white;"/>
        </g>
        <g transform="matrix(0.095238,-1.4585e-16,-1.4585e-16,-0.095238,-42.1377,402.862)">
            <path d="M6444,3786C6511,3768 6580,3723 6612,3676C6683,3570 6684,3400 6615,3266C6605,3245 6583,3201 6567,3167C6495,3018 6321,2862 6111,2758C6007,2706 5979,2688 5976,2669C5972,2636 5992,2615 6027,2615C6042,2615 6111,2642 6180,2676C6328,2749 6401,2766 6531,2759C6656,2752 6715,2723 6809,2623C6966,2457 7028,2312 7042,2072C7053,1887 7030,1771 6951,1600C6882,1453 6828,1376 6709,1259C6499,1051 6207,893 5870,807C5648,750 5424,756 5350,820C5292,871 5276,974 5296,1176C5305,1265 5306,1266 5374,1268C5486,1271 5666,1329 5782,1398C5907,1473 6039,1621 6095,1748C6179,1936 6172,2144 6079,2289C6031,2365 5941,2441 5860,2475C5796,2502 5781,2504 5644,2504C5524,2504 5478,2500 5394,2479C5338,2465 5289,2456 5287,2459C5271,2474 5366,2931 5409,3048C5504,3306 5657,3512 5853,3646C5937,3704 6078,3768 6156,3785C6242,3804 6376,3804 6444,3786Z" style="fill:white;"/>
        </g>
        <g transform="matrix(0.095238,-1.4585e-16,-1.4585e-16,-0.095238,-42.1377,402.862)">
            <path d="M7399,3984C7465,3952 7556,3867 7596,3798C7633,3735 7671,3619 7685,3529C7735,3208 7630,2612 7433,2093C7336,1840 7332,1816 7385,1817C7424,1817 7453,1858 7503,1989C7554,2124 7598,2203 7705,2352C7795,2475 7876,2541 8048,2626C8221,2711 8308,2733 8474,2734L8606,2735L8686,2696C8749,2664 8772,2646 8798,2608C8837,2548 8845,2510 8839,2406C8833,2317 8797,2204 8745,2111C8654,1949 8468,1746 8290,1614C8026,1418 7649,1251 7345,1196C7161,1163 6870,1169 6833,1206C6825,1214 6836,1235 6868,1276C7087,1554 7174,1828 7141,2133C7126,2273 7085,2407 7025,2508C6949,2638 6823,2768 6723,2818C6681,2839 6673,2873 6673,3029C6674,3136 6676,3150 6707,3220C6752,3320 6772,3411 6772,3515C6773,3663 6825,3773 6943,3870C7106,4006 7268,4046 7399,3984Z" style="fill:white;"/>
        </g>
        <g transform="matrix(0.095238,-1.4585e-16,-1.4585e-16,-0.095238,-42.1377,402.862)">
            <path d="M11602,3534C11801,3480 12063,3148 12143,2846C12204,2616 12216,2346 12175,2163C12149,2053 12145,2048 12093,2048C11931,2048 11782,1948 11699,1786C11646,1683 11632,1624 11635,1512C11636,1461 11633,1415 11629,1408C11618,1389 11526,1346 11421,1311C11332,1280 11313,1278 11183,1278C10968,1278 10776,1320 10580,1410C10463,1465 10434,1528 10479,1633C10491,1660 10500,1691 10500,1702C10500,1713 10504,1722 10508,1722C10529,1722 10660,1842 10716,1913C10828,2052 10942,2248 10999,2399C11060,2565 11110,2794 11126,2993C11132,3074 11138,3091 11191,3192C11298,3395 11374,3494 11450,3529C11501,3553 11527,3553 11602,3534Z" style="fill:white;"/>
        </g>
        <g transform="matrix(0.095238,-1.4585e-16,-1.4585e-16,-0.095238,-42.1377,402.862)">
            <path d="M4845,3665C4990,3594 5061,3441 5061,3198C5061,3087 5043,2969 4997,2790C4968,2671 4885,2429 4856,2373C4849,2359 4819,2297 4790,2237C4761,2176 4720,2099 4700,2066C4680,2032 4660,1996 4657,1985C4648,1957 4685,1921 4714,1929C4736,1935 4780,1990 4813,2054C4822,2073 4854,2112 4885,2141C4979,2231 5236,2345 5448,2389C5555,2411 5734,2409 5803,2385C5956,2332 6051,2193 6051,2021C6051,1858 5995,1732 5859,1595C5783,1518 5755,1497 5670,1456C5575,1410 5397,1359 5356,1367C5344,1370 5340,1381 5343,1412C5351,1538 5298,1693 5220,1771C5128,1863 5023,1901 4867,1902C4672,1903 4468,1827 4249,1672C4198,1635 4154,1607 4151,1610C4149,1612 4168,1666 4193,1728C4346,2101 4422,2719 4362,3082C4337,3229 4338,3272 4372,3377C4403,3472 4467,3569 4531,3618C4616,3683 4762,3705 4845,3665Z" style="fill:white;"/>
        </g>
        <g transform="matrix(0.095238,-1.4585e-16,-1.4585e-16,-0.095238,-42.1377,402.862)">
            <path d="M9124,4091C9272,4038 9380,3929 9476,3733C9569,3544 9599,3427 9619,3181C9649,2807 9587,2417 9445,2090C9405,1996 9349,1901 9334,1901C9330,1901 9321,1886 9315,1869C9309,1851 9258,1790 9201,1734C9115,1648 9083,1623 9009,1587C8826,1498 8616,1472 8471,1521C8432,1534 8398,1549 8395,1554C8392,1558 8407,1575 8429,1592C8505,1649 8690,1844 8751,1932C8882,2122 8952,2318 8944,2472C8937,2587 8903,2659 8818,2733L8755,2788L8761,2972C8764,3073 8770,3175 8774,3199C8779,3234 8777,3246 8758,3265C8740,3283 8731,3285 8714,3276C8680,3257 8673,3221 8666,3017L8659,2824L8606,2832C8522,2845 8360,2839 8279,2820C8190,2799 8082,2760 7988,2713L7918,2678L7911,2726C7901,2791 7915,3022 7934,3119C7988,3386 8116,3655 8270,3821C8396,3957 8510,4033 8663,4083C8780,4121 8811,4126 8930,4122C9023,4120 9061,4114 9124,4091Z" style="fill:white;"/>
        </g>
        <g transform="matrix(0.095238,-1.4585e-16,-1.4585e-16,-0.095238,-42.1377,402.862)">
            <path d="M10611,3921C10771,3880 10883,3747 10961,3505C11008,3358 11019,3273 11019,3071C11019,2868 10999,2739 10935,2531C10890,2387 10781,2170 10690,2043C10521,1810 10286,1679 10059,1693C9886,1704 9739,1775 9645,1894C9594,1958 9589,1968 9566,2039C9555,2074 9558,2088 9592,2186C9636,2313 9685,2504 9701,2612C9737,2854 9735,3190 9696,3403L9679,3493L9706,3534C9786,3656 9851,3724 9960,3796C10041,3849 10169,3902 10262,3921C10365,3941 10533,3941 10611,3921Z" style="fill:white;"/>
        </g>
        <g transform="matrix(0.095238,-1.4585e-16,-1.4585e-16,-0.095238,-42.1377,402.862)">
            <path d="M12321,2063C12338,2020 12338,2012 12325,1999C12312,1986 12305,1986 12271,2000C12238,2014 12233,2021 12233,2051C12233,2069 12240,2095 12249,2108C12272,2141 12298,2124 12321,2063Z" style="fill:white;"/>
        </g>
        <g transform="matrix(0.095238,-1.4585e-16,-1.4585e-16,-0.095238,-42.1377,402.862)">
            <path d="M6584,2856L6583,2901C6581,2982 6573,2985 6518,2924C6490,2893 6468,2866 6468,2862C6468,2859 6494,2856 6526,2856L6584,2856Z" style="fill:white;"/>
        </g>
    </g>
    <g transform="matrix(0.095238,-1.4585e-16,-1.4585e-16,-0.095238,-42.1377,402.862)">
        <path d="M10240,3211C10211,3176 10163,3026 10134,2882C10086,2642 10085,2628 10107,2604C10156,2549 10182,2592 10213,2778C10227,2863 10251,2970 10265,3017C10280,3064 10297,3121 10303,3143C10312,3171 10312,3187 10304,3200C10290,3223 10255,3229 10240,3211Z" style="fill-rule:nonzero;"/>
    </g>
    <g transform="matrix(0.095238,-1.4585e-16,-1.4585e-16,-0.095238,-42.1377,402.862)">
        <path d="M6046,3315C5929,3237 5917,3226 5917,3197C5917,3170 5921,3165 5948,3163C5973,3160 6006,3176 6094,3233C6236,3325 6237,3326 6237,3356C6237,3378 6211,3402 6186,3402C6181,3402 6118,3363 6046,3315Z" style="fill-rule:nonzero;"/>
    </g>
    <g transform="matrix(0.095238,-1.4585e-16,-1.4585e-16,-0.095238,-42.1377,402.862)">
        <path d="M6360,2118C6349,2109 6343,2075 6338,1993C6334,1931 6326,1866 6320,1849C6306,1810 6321,1785 6357,1785C6403,1785 6418,1819 6428,1940C6439,2061 6432,2101 6396,2120C6382,2128 6372,2127 6360,2118Z" style="fill-rule:nonzero;"/>
    </g>
    <g transform="matrix(0.095238,-1.4585e-16,-1.4585e-16,-0.095238,-42.1377,402.862)">
        <path d="M11523,2481C11514,2459 11483,2390 11453,2328C11396,2208 11394,2183 11442,2176C11478,2170 11553,2291 11597,2423C11619,2492 11612,2520 11570,2520C11543,2520 11536,2514 11523,2481Z" style="fill-rule:nonzero;"/>
    </g>
</svg>
